<?xml version="1.0" encoding="UTF-8" standalone="no"?>
<svg
   xmlns:dc="http://purl.org/dc/elements/1.1/"
   xmlns:cc="http://creativecommons.org/ns#"
   xmlns:rdf="http://www.w3.org/1999/02/22-rdf-syntax-ns#"
   xmlns:svg="http://www.w3.org/2000/svg"
   xmlns="http://www.w3.org/2000/svg"
   viewBox="0 0 158.91516 165.00047"
   height="165.00047"
   width="158.91516"
   xml:space="preserve"
   version="1.1"
   id="svg4155"><metadata
     id="metadata4161"><rdf:RDF><cc:Work
         rdf:about=""><dc:format>image/svg+xml</dc:format><dc:type
           rdf:resource="http://purl.org/dc/dcmitype/StillImage" /><dc:title></dc:title></cc:Work></rdf:RDF></metadata><defs
     id="defs4159"><clipPath
       id="clipPath4639"
       clipPathUnits="userSpaceOnUse"><path
         id="path4641"
         d="m 0,0 223.3,0 0,228.7 L 0,228.7 0,0 Z" /></clipPath><clipPath
       id="clipPath4831"
       clipPathUnits="userSpaceOnUse"><path
         id="path4833"
         d="m 0,0 158.2,0 0,164.2 L 0,164.2 0,0 Z" /></clipPath><clipPath
       id="clipPath4993"
       clipPathUnits="userSpaceOnUse"><path
         id="path4995"
         d="M 0,0 93,0 93,23 0,23 0,0 Z" /></clipPath><clipPath
       id="clipPath4831-5"
       clipPathUnits="userSpaceOnUse"><path
         id="path4833-8"
         d="m 0,0 158.2,0 0,164.2 L 0,164.2 0,0 Z" /></clipPath></defs><g
     transform="matrix(1.25,0,0,-1.25,-57.027847,968.69441)"
     id="g4163"><g
       id="g4165"><g
         id="g4823"
         transform="translate(-64.784945,119.75515)"><g
           transform="matrix(0.8039,0,0,0.8039,110.4,523.2)"
           id="g4825"><g
             id="g4827"><g
               clip-path="url(#clipPath4831-5)"
               id="g4829"><g
                 transform="scale(0.1,0.1)"
                 id="g4835"><path
                   id="path4837"
                   style="fill:none;stroke:#231f20;stroke-width:9.59990025;stroke-linecap:round;stroke-linejoin:round;stroke-miterlimit:10;stroke-dasharray:none;stroke-opacity:1"
                   d="m 788.191,1637.68 0,-56 c 0,-41.9 -32,-74.8 -72.101,-74.8 -40,0 -72.899,32.9 -72.899,74.8 m 0,0 0,56" /><path
                   id="path4839"
                   style="fill:none;stroke:#231f20;stroke-width:14.39999962;stroke-linecap:round;stroke-linejoin:round;stroke-miterlimit:10;stroke-dasharray:none;stroke-opacity:1"
                   d="m 406.578,7.19922 615.523,0 0,1627.79998 -615.523,0 0,-1627.79998 z" /><path
                   id="path4841"
                   style="fill:#231f20;fill-opacity:1;fill-rule:evenodd;stroke:none"
                   d="m 499.98,1412.58 -10.679,0 0,66.8 c -2.672,-2.7 -5.332,-5.4 -9.781,-8 -3.559,-1.8 -8.008,-3.6 -10.68,-5.4 l 0,10.7 c 5.34,2.7 10.68,6.2 15.129,9.8 4.441,3.5 7.109,8 8.89,11.5 l 7.121,0 0,-85.4" /><path
                   id="path4843"
                   style="fill:#231f20;fill-opacity:1;fill-rule:evenodd;stroke:none"
                   d="m 515.102,1240.98 0,-9.8 -56.043,0 c 0,2.7 0.89,4.4 1.781,7.1 0.89,3.6 3.558,7.1 6.23,11.6 3.551,3.5 8,8 14.231,12.4 8.89,8 15.121,13.4 18.679,17.8 2.661,4.5 4.442,8.9 4.442,12.5 0,4.4 -0.891,8 -4.442,10.6 -2.671,2.7 -6.23,4.5 -11.57,4.5 -4.441,0 -8.89,-1.8 -11.558,-4.5 -3.563,-3.5 -4.454,-7.1 -4.454,-12.4 l -10.668,0.9 c 0,8 2.668,14.2 8,17.8 4.45,4.4 10.68,7.1 19.571,7.1 8.008,0 14.23,-2.7 18.679,-7.1 5.34,-4.5 7.122,-9.8 7.122,-16.9 0,-3.6 -0.891,-6.3 -1.782,-9.8 -1.781,-3.6 -3.558,-7.1 -7.121,-10.7 -2.668,-3.6 -8,-8.9 -16.008,-15.1 -6.222,-5.4 -9.781,-8.9 -11.562,-10.7 -1.777,-1.8 -3.559,-3.6 -4.449,-5.3 l 40.922,0" /><path
                   id="path4845"
                   style="fill:#231f20;fill-opacity:1;fill-rule:evenodd;stroke:none"
                   d="m 460.84,1071.08 10.672,0.9 c 0.886,-5.4 2.668,-9.8 5.34,-12.5 3.558,-2.7 7.117,-3.5 10.668,-3.5 5.339,0 8.902,1.7 12.46,4.4 3.551,3.6 5.329,8 5.329,13.3 0,4.5 -1.778,8 -4.438,11.6 -3.562,2.7 -7.121,4.5 -12.461,4.5 -1.781,0 -4.441,0 -7.109,-0.9 l 0.89,8.9 c 0.887,0 1.778,0 1.778,0 4.441,0 8.89,0.8 12.453,3.5 3.558,2.7 5.328,6.2 5.328,10.7 0,3.5 -1.77,7.1 -4.441,9.8 -2.668,1.8 -5.34,3.5 -9.789,3.5 -4.442,0 -7.11,-1.7 -9.782,-3.5 -2.668,-2.7 -4.449,-7.1 -5.34,-11.6 l -10.668,1.8 c 0.891,7.1 4.45,12.4 8.891,16 4.449,3.6 9.789,6.2 16.899,6.2 4.449,0 8.902,-1.8 12.46,-3.5 4.442,-1.8 7.11,-4.5 8.891,-8 2.668,-3.6 3.559,-7.2 3.559,-10.7 0,-3.6 -0.891,-7.1 -3.559,-10.7 -1.781,-2.7 -4.449,-5.3 -8,-7.1 4.438,-0.9 8.891,-3.6 11.559,-7.1 2.672,-3.6 3.558,-8 3.558,-13.4 0,-7.1 -2.668,-14.2 -8.008,-18.6 -5.339,-5.4 -11.558,-8 -20.46,-8 -7.11,0 -13.34,1.7 -18.68,6.2 -4.442,4.4 -7.11,10.7 -8,17.8" /><path
                   id="path4847"
                   style="fill:#231f20;fill-opacity:1;fill-rule:evenodd;stroke:none"
                   d="m 493.75,866.469 0,19.57 -36.469,0 0,9.781 39.141,55.16 8,0 0,-55.16 11.566,0 0,-9.781 -11.566,0 0,-19.57 -10.672,0 z m 0,29.351 0,38.258 -26.68,-38.258 26.68,0" /><path
                   id="path4849"
                   style="fill:#231f20;fill-opacity:1;fill-rule:evenodd;stroke:none"
                   d="m 460.84,706.352 10.672,1.777 c 0.886,-5.328 2.668,-9.777 5.34,-12.449 3.558,-2.668 7.117,-4.45 10.668,-4.45 5.339,0 9.789,2.668 13.351,6.231 3.551,3.559 5.328,8.891 5.328,15.117 0,5.344 -1.777,10.684 -5.328,14.231 -3.562,2.671 -8.012,4.453 -13.351,4.453 -2.668,0 -6.219,0 -8.891,-1.782 -2.668,-1.781 -4.449,-3.558 -6.231,-6.218 l -9.777,1.769 8,43.59 42.699,0 0,-10.672 -33.8,0 -5.34,-22.238 c 5.34,3.559 10.672,5.34 16.011,5.34 8.008,0 14.231,-2.672 19.571,-8.012 4.449,-5.34 7.117,-11.559 7.117,-19.57 0,-8.008 -1.777,-14.231 -6.231,-20.457 -6.226,-6.223 -13.339,-9.782 -23.128,-9.782 -7.11,0 -13.34,1.782 -18.68,6.219 -4.442,4.449 -7.11,9.789 -8,16.903" /><path
                   id="path4851"
                   style="fill:#231f20;fill-opacity:1;fill-rule:evenodd;stroke:none"
                   d="m 515.102,565.809 -10.68,0 c -0.891,3.562 -2.672,7.121 -3.551,8.902 -3.562,2.668 -7.121,4.437 -10.68,4.437 -3.562,0 -6.222,-0.878 -8.89,-3.546 -3.563,-1.782 -6.231,-5.34 -8.012,-9.793 -1.777,-4.45 -2.668,-11.559 -2.668,-19.571 2.668,3.563 5.34,6.231 8.899,8.012 3.558,1.781 8,2.672 11.558,2.672 7.121,0 13.344,-2.672 17.793,-7.121 5.34,-5.34 7.117,-11.563 7.117,-20.461 0,-5.328 -0.886,-9.781 -3.558,-14.231 -1.782,-4.449 -5.34,-8.007 -8.899,-10.668 -4.441,-2.671 -8.89,-3.562 -14.23,-3.562 -8,0 -15.121,2.672 -20.461,9.781 -6.219,6.231 -8.891,16.899 -8.891,31.141 0,16.898 3.563,28.461 9.781,35.578 4.45,7.109 11.571,9.781 21.348,9.781 6.231,0 11.563,-1.781 16.012,-5.34 4.449,-3.55 7.121,-8.89 8.012,-16.011 z M 472.398,529.34 c 0,-3.559 0.891,-7.11 1.782,-9.781 1.781,-3.559 3.558,-6.231 7.121,-8.008 2.668,-1.781 5.328,-2.672 8,-2.672 4.449,0 8.008,1.781 11.57,5.34 3.551,3.562 4.438,8.902 4.438,15.121 0,5.34 -0.887,9.789 -4.438,13.34 -2.672,3.558 -7.121,5.34 -11.57,5.34 -5.332,0 -8.891,-1.782 -12.449,-5.34 -2.672,-3.551 -4.454,-7.11 -4.454,-13.34" /><path
                   id="path4853"
                   style="fill:#231f20;fill-opacity:1;fill-rule:evenodd;stroke:none"
                   d="m 461.73,394.141 0,9.781 54.258,0 0,-8 c -5.34,-5.344 -10.679,-13.352 -16.008,-22.242 -5.339,-9.789 -8.902,-19.571 -12.46,-29.36 -1.782,-7.109 -2.668,-15.121 -3.551,-24.011 l -10.68,0 c 0,7.113 1.781,15.121 3.563,24.902 2.668,8.898 6.226,17.789 10.668,26.687 5.339,8.891 9.789,16.012 15.121,22.243 l -40.911,0" /><path
                   id="path4855"
                   style="fill:#231f20;fill-opacity:1;fill-rule:evenodd;stroke:none"
                   d="m 476.852,184.211 c -4.454,1.777 -8.012,3.559 -9.782,7.117 -1.781,2.672 -2.672,6.231 -2.672,9.781 0,6.231 1.782,11.571 6.223,16.02 4.449,4.441 10.68,6.223 17.789,6.223 7.121,0 13.34,-1.782 17.789,-6.223 4.449,-4.449 7.121,-9.789 7.121,-16.02 0,-3.55 -1.781,-7.109 -3.558,-9.781 -1.782,-3.558 -5.34,-5.34 -8.891,-7.117 4.438,-1.781 8.891,-4.441 11.559,-8 2.672,-4.449 4.449,-8.902 4.449,-13.34 0,-8.012 -2.668,-14.242 -8.008,-18.68 -5.34,-5.339 -11.562,-7.121 -20.461,-7.121 -8,0 -15.121,1.782 -20.461,7.121 -4.437,5.329 -7.109,10.668 -7.109,18.68 0,5.328 0.89,9.777 3.558,13.34 3.551,4.449 7.114,6.219 12.454,8 z M 475.07,202 c 0,-4.441 0.891,-7.109 3.559,-9.781 2.672,-2.668 6.223,-4.449 9.781,-4.449 4.449,0 7.121,1.781 9.789,4.449 2.672,2.672 4.442,5.34 4.442,8.89 0,3.563 -1.77,7.121 -4.442,9.789 -2.668,2.672 -6.23,3.563 -9.789,3.563 -3.558,0 -7.109,-0.891 -9.781,-3.563 -2.668,-2.668 -3.559,-5.339 -3.559,-8.898 z m -3.558,-39.129 c 0,-3.562 0.886,-6.23 1.777,-8.902 1.781,-2.668 3.563,-4.449 6.231,-6.231 2.671,-1.777 6.218,-2.66 8.89,-2.66 5.34,0 8.899,1.774 12.461,5.332 3.551,2.668 5.328,7.121 5.328,11.57 0,5.329 -1.777,9.782 -5.328,12.45 -3.562,3.558 -7.121,5.34 -12.461,5.34 -5.332,0 -8.89,-1.782 -12.449,-5.34 -2.672,-2.668 -4.449,-7.121 -4.449,-11.559" /><path
                   id="path4857"
                   style="fill:#231f20;fill-opacity:1;fill-rule:evenodd;stroke:none"
                   d="m 901.09,1412.58 -10.602,0 0,65.9 c -2.699,-1.8 -6.297,-4.5 -9.797,-7.1 -4.5,-1.8 -8,-3.6 -11.601,-5.4 l 0,10.7 c 6.199,2.7 11.601,5.3 16,9.8 4.5,3.5 7.101,7.1 8.898,10.6 l 7.102,0 0,-84.5" /><path
                   id="path4859"
                   style="fill:#231f20;fill-opacity:1;fill-rule:evenodd;stroke:none"
                   d="m 981.191,1476.68 -9.8,-0.9 c -0.903,3.6 -2.7,7.1 -4.403,8.9 -2.699,2.7 -6.297,4.4 -9.797,4.4 -3.601,0 -6.203,-0.8 -8.902,-2.6 -3.598,-2.7 -6.199,-6.3 -8,-10.7 -1.801,-4.4 -2.699,-11.6 -2.699,-19.6 2.699,3.6 5.301,6.3 8.898,8 3.602,2.7 7.102,3.6 11.602,3.6 7.101,0 12.398,-2.7 17.801,-8 4.398,-5.3 7.097,-11.6 7.097,-19.6 0,-5.3 -0.898,-10.7 -3.597,-15.1 -1.801,-4.5 -5.301,-8 -8.903,-10.7 -4.398,-2.6 -8.898,-3.5 -14.199,-3.5 -8.898,0 -15.098,3.5 -21.398,9.7 -5.301,6.3 -8,16.9 -8,31.2 0,16.9 3.597,28.4 8.898,36.5 5.402,6.2 12.5,8.8 21.402,8.8 7.098,0 12.399,-1.7 16.899,-5.3 4.398,-3.5 6.199,-8.9 7.101,-15.1 z m -41.8,-36.5 c 0,-3.5 0,-7.1 1.8,-10.7 1.7,-3.5 3.5,-6.2 6.2,-7.1 2.699,-1.8 6.199,-2.6 8.898,-2.6 4.402,0 8,1.7 11.602,5.3 2.597,3.6 4.398,8 4.398,14.2 0,6.3 -1.801,10.7 -4.398,13.4 -3.602,3.5 -7.2,5.3 -11.602,5.3 -5.301,0 -8.898,-1.8 -12.5,-5.3 -3.5,-2.7 -4.398,-7.1 -4.398,-12.5" /><path
                   id="path4861"
                   style="fill:#231f20;fill-opacity:1;fill-rule:evenodd;stroke:none"
                   d="m 901.09,1230.28 -10.602,0 0,66.7 c -2.699,-2.7 -6.297,-4.4 -9.797,-7.1 -4.5,-2.7 -8,-4.5 -11.601,-5.3 l 0,9.7 c 6.199,2.7 11.601,6.3 16,10.7 4.5,3.6 7.101,7.1 8.898,10.7 l 7.102,0 0,-85.4" /><path
                   id="path4863"
                   style="fill:#231f20;fill-opacity:1;fill-rule:evenodd;stroke:none"
                   d="m 927.789,1252.48 10.699,1.8 c 0.903,-5.3 2.703,-9.8 5.301,-12.4 3.602,-2.7 7.199,-3.6 10.699,-3.6 5.301,0 9.801,1.8 13.403,5.3 3.5,3.6 4.398,8.9 4.398,15.2 0,5.3 -0.898,10.6 -4.398,14.2 -3.602,2.7 -8.102,4.4 -13.403,4.4 -3.5,0 -6.199,0 -8.898,-1.7 -2.699,-1.8 -5.301,-3.6 -6.199,-6.3 l -9.801,1.8 8,43.6 41.801,0 0,-10.7 -33.801,0 -4.399,-22.2 c 5.297,3.5 10.598,5.3 16,5.3 8,0 14.2,-2.6 18.7,-8 5.3,-5.3 8,-11.5 8,-19.6 0,-8 -2.7,-14.2 -7.2,-20.4 -5.3,-6.2 -12.402,-9.8 -22.203,-9.8 -7.097,0 -13.297,1.8 -18.699,6.2 -4.398,4.5 -8,9.8 -8,16.9" /><path
                   id="path4865"
                   style="fill:#231f20;fill-opacity:1;fill-rule:evenodd;stroke:none"
                   d="m 901.09,1047.88 -10.602,0 0,66.8 c -2.699,-2.7 -6.297,-4.5 -9.797,-7.2 -4.5,-2.6 -8,-4.4 -11.601,-5.3 l 0,9.8 c 6.199,2.7 11.601,6.2 16,10.7 4.5,3.5 7.101,7.1 8.898,10.6 l 7.102,0 0,-85.4" /><path
                   id="path4867"
                   style="fill:#231f20;fill-opacity:1;fill-rule:evenodd;stroke:none"
                   d="m 960.691,1047.88 0,20.5 -36.402,0 0,9.8 38.199,55.1 8.903,0 0,-55.1 11.597,0 0,-9.8 -11.597,0 0,-20.5 -10.7,0 z m 0,30.3 0,38.2 -26.601,-38.2 26.601,0" /><path
                   id="path4869"
                   style="fill:#231f20;fill-opacity:1;fill-rule:evenodd;stroke:none"
                   d="m 901.09,865.578 -10.602,0 0,66.703 c -2.699,-2.703 -6.297,-4.402 -9.797,-7.101 -4.5,-2.7 -8,-4.5 -11.601,-5.301 l 0,9.699 c 6.199,2.703 11.601,6.301 16,9.801 4.5,4.5 7.101,8 8.898,11.601 l 7.102,0 0,-85.402" /><path
                   id="path4871"
                   style="fill:#231f20;fill-opacity:1;fill-rule:evenodd;stroke:none"
                   d="m 927.789,888.699 9.801,0.891 c 1.801,-6.219 3.601,-9.781 6.199,-12.449 2.699,-2.672 6.301,-4.45 10.699,-4.45 5.301,0 8.903,1.778 12.5,5.34 3.5,3.559 5.301,8.008 5.301,12.449 0,5.34 -1.801,8.899 -5.301,12.5 -2.699,2.598 -7.199,4.399 -11.597,4.399 -1.801,0 -4.403,-0.899 -7.102,-0.899 l 0.902,8.899 c 0.899,0 1.797,0 1.797,0 4.403,0 8,0.902 11.5,3.601 3.602,1.7 5.403,5.301 5.403,10.598 0,3.602 -0.903,7.203 -3.602,8.902 -2.699,2.7 -6.199,4.5 -9.801,4.5 -4.398,0 -8,-1.8 -10.699,-4.5 -2.598,-2.601 -4.398,-6.199 -4.398,-11.5 l -10.7,1.801 c 0.899,7.098 4.5,12.399 8.899,16.899 4.5,3.5 9.801,5.3 16.898,5.3 4.5,0 8.903,-0.902 12.5,-2.699 3.5,-1.801 7.102,-4.402 8.903,-8 1.699,-3.5 2.597,-7.101 2.597,-11.5 0,-3.601 -0.898,-6.301 -2.597,-9.801 -1.801,-2.699 -4.5,-5.402 -8.903,-7.101 5.301,-0.899 8.903,-3.598 11.5,-7.199 3.602,-3.5 4.5,-7.969 4.5,-13.309 0,-8 -2.699,-14.23 -8,-19.57 -5.398,-4.442 -12.5,-7.11 -20.5,-7.11 -7.097,0 -13.297,1.778 -18.699,6.219 -4.398,4.449 -8,10.68 -8,17.789" /><path
                   id="path4873"
                   style="fill:#231f20;fill-opacity:1;fill-rule:evenodd;stroke:none"
                   d="m 901.09,684.121 -10.602,0 0,66.707 c -2.699,-2.668 -6.297,-4.449 -9.797,-7.117 -4.5,-2.66 -8,-4.441 -11.601,-5.332 l 0,9.781 c 6.199,2.668 11.601,6.231 16,9.789 4.5,4.442 7.101,8 8.898,11.563 l 7.102,0 0,-85.391" /><path
                   id="path4875"
                   style="fill:#231f20;fill-opacity:1;fill-rule:evenodd;stroke:none"
                   d="m 982.09,694.789 0,-10.668 -56.102,0 c 0,2.668 0,5.328 0.903,7.109 1.8,4.45 4.5,8.008 7.199,11.571 3.5,3.551 8,8 14.199,13.34 8.902,7.121 15.102,13.339 18.699,17.789 2.602,4.449 4.403,8 4.403,12.449 0,3.562 -1.801,7.121 -4.403,10.68 -2.699,2.66 -7.199,3.55 -11.597,3.55 -5.301,0 -8.903,-0.89 -11.602,-4.437 -3.5,-2.672 -5.301,-7.121 -5.301,-12.461 l -10.699,0.891 c 0.902,8.007 3.602,14.238 8.902,18.679 4.5,4.449 10.7,6.231 18.7,6.231 8,0 15.097,-1.782 19.597,-7.121 4.403,-4.442 7.102,-9.782 7.102,-16.012 0,-3.559 -0.899,-7.109 -1.801,-10.668 -1.801,-2.672 -3.598,-6.231 -7.098,-9.789 -3.601,-3.551 -8.902,-8.891 -16,-15.121 -6.203,-5.34 -10.703,-8.891 -12.5,-10.672 -1.8,-1.777 -2.601,-3.559 -4.402,-5.34 l 41.801,0" /><path
                   id="path4877"
                   style="fill:#231f20;fill-opacity:1;fill-rule:evenodd;stroke:none"
                   d="m 909.09,501.77 -10.602,0 0,66.71 c -1.797,-2.671 -5.398,-5.339 -9.797,-7.121 -3.601,-2.66 -7.101,-4.437 -10.703,-5.328 l 0,9.778 c 5.403,2.671 10.703,6.23 15.102,9.793 4.5,4.437 8,8 9.801,11.558 l 6.199,0 0,-85.39" /><path
                   id="path4879"
                   style="fill:#231f20;fill-opacity:1;fill-rule:evenodd;stroke:none"
                   d="m 957.191,501.77 -9.8,0 0,66.71 c -2.7,-2.671 -6.2,-5.339 -9.801,-7.121 -4.399,-2.66 -8,-4.437 -11.602,-5.328 l 0,9.778 c 6.301,2.671 11.602,6.23 16.102,9.793 3.5,4.437 7.101,8 8.898,11.558 l 6.203,0 0,-85.39" /><path
                   id="path4881"
                   style="fill:#231f20;fill-opacity:1;fill-rule:evenodd;stroke:none"
                   d="m 901.09,320.309 -10.602,0 0,66.711 c -2.699,-2.668 -6.297,-5.34 -9.797,-7.11 -4.5,-2.672 -8,-4.449 -11.601,-5.34 l 0,9.782 c 6.199,2.668 11.601,6.226 16,9.789 4.5,3.558 7.101,8 8.898,11.558 l 7.102,0 0,-85.39" /><path
                   id="path4883"
                   style="fill:#231f20;fill-opacity:1;fill-rule:evenodd;stroke:none"
                   d="m 927.789,362.109 c 0,9.789 0.902,17.801 2.699,24.02 1.801,6.23 5.301,11.57 8.903,14.23 4.398,3.563 9.8,5.34 16,5.34 4.398,0 8,-0.89 11.597,-2.668 3.5,-1.781 6.203,-4.453 8.903,-8 1.699,-3.562 3.5,-8.011 5.3,-12.461 0.899,-5.332 1.797,-11.558 1.797,-20.461 0,-9.781 -0.898,-17.789 -3.597,-24.007 -1.801,-6.231 -4.403,-10.68 -8.903,-14.231 -4.398,-3.562 -8.898,-5.34 -15.097,-5.34 -8,0 -15.102,3.559 -19.602,8.891 -5.301,7.117 -8,18.68 -8,34.687 z m 10.699,0 c 0,-14.23 0.903,-23.121 4.403,-27.57 3.597,-4.449 7.199,-7.117 12.5,-7.117 4.398,0 8.898,2.668 11.597,7.117 3.5,4.449 5.301,13.34 5.301,27.57 0,14.243 -1.801,23.129 -5.301,27.582 -2.699,5.34 -7.199,7.118 -11.597,7.118 -5.301,0 -8.903,-1.778 -11.602,-6.231 -3.5,-4.449 -5.301,-14.226 -5.301,-28.469" /><path
                   id="path4885"
                   style="fill:#231f20;fill-opacity:1;fill-rule:evenodd;stroke:none"
                   d="m 928.691,157.531 9.797,0.891 c 0.903,-4.453 2.703,-8.012 5.301,-9.793 1.801,-2.668 5.402,-3.551 8.902,-3.551 3.598,0 6.297,0.883 8,1.774 2.7,1.777 4.5,3.558 6.297,6.226 1.703,2.672 2.602,6.231 4.403,9.793 0.898,4.438 0.898,8.891 0.898,13.34 0,0 0,0.891 0,1.777 -1.801,-3.558 -4.398,-6.226 -8,-8.008 -3.598,-2.671 -8,-3.558 -12.5,-3.558 -6.199,0 -12.398,2.668 -17.699,8.008 -4.5,5.34 -7.199,11.558 -7.199,20.461 0,8 2.699,15.121 8,20.461 4.5,5.328 11.597,8 18.699,8 5.398,0 10.699,-1.782 15.101,-4.454 4.5,-3.546 8,-7.109 10.7,-13.339 2.699,-5.34 3.597,-13.34 3.597,-23.129 0,-11.559 -0.898,-19.559 -3.597,-26.68 -2.7,-6.23 -6.2,-10.672 -10.7,-14.23 -4.402,-3.559 -9.703,-5.34 -16,-5.34 -7.101,0 -12.402,1.781 -16,6.23 -4.402,3.551 -7.101,8.891 -8,15.121 z m 42.7,37.36 c 0,6.218 -1.801,10.668 -4.403,14.23 -3.597,3.559 -7.199,5.34 -11.597,5.34 -5.301,0 -8.903,-1.781 -12.5,-5.34 -3.5,-4.449 -5.301,-8.902 -5.301,-15.121 0,-5.34 1.801,-9.789 5.301,-13.34 2.699,-2.672 7.199,-4.449 11.597,-4.449 5.301,0 8.903,1.777 12.5,4.449 2.602,3.551 4.403,8 4.403,14.231" /><path
                   id="path4887"
                   style="fill:#231f20;fill-opacity:1;fill-rule:evenodd;stroke:none"
                   d="m 220.68,1393.98 0,84.5 32.019,0 c 6.231,0 11.563,-0.9 15.121,-2.7 4.45,-0.9 7.121,-3.6 9.789,-7.1 1.782,-3.6 2.672,-8 2.672,-11.6 0,-3.5 -0.89,-7.1 -2.672,-10.7 -1.781,-2.6 -4.449,-5.3 -8.898,-7.1 5.34,-1.8 8.898,-4.4 11.57,-8 2.66,-3.5 4.438,-8 4.438,-12.4 0,-4.5 -0.891,-8 -2.668,-11.6 -1.77,-3.6 -3.551,-6.2 -6.223,-8 -2.668,-1.8 -5.34,-2.7 -8.898,-4.4 -3.551,-0.9 -8.891,-0.9 -14.231,-0.9 l -32.019,0 z m 11.558,48.9 17.793,0 c 5.34,0 8.899,0.9 10.68,0.9 2.668,0.9 5.328,2.6 7.109,4.4 0.891,1.8 1.782,4.5 1.782,7.1 0,3.6 -0.891,5.4 -1.782,8 -1.781,1.8 -3.558,3.6 -6.218,4.5 -2.672,0.9 -6.231,0.9 -12.461,0.9 l -16.903,0 0,-25.8 z m 0,-39.2 20.461,0 c 3.563,0 6.231,0 8.012,0.9 2.668,0 4.437,0.9 6.219,1.8 1.781,0.9 3.558,2.7 4.449,5.4 0.891,1.7 1.781,4.4 1.781,7.1 0,2.6 -0.89,5.3 -2.672,8 -1.777,1.8 -3.558,3.5 -6.226,4.4 -3.551,0.9 -7.114,1.8 -12.453,1.8 l -19.571,0 0,-29.4" /><path
                   id="path4889"
                   style="fill:#231f20;fill-opacity:1;fill-rule:evenodd;stroke:none"
                   d="m 274.941,1237.38 10.668,-2.7 c -1.781,-8.9 -6.218,-16 -12.449,-21.3 -6.23,-4.5 -13.34,-7.1 -22.238,-7.1 -8.891,0 -16.902,1.8 -22.231,5.3 -6.23,3.6 -9.793,9.8 -13.351,16 -2.668,7.1 -4.442,15.1 -4.442,23.2 0,8.8 1.774,16.9 5.332,23.1 3.559,6.2 8.008,11.5 14.231,15.1 6.23,3.6 13.348,5.3 20.461,5.3 8.898,0 16.008,-2.6 21.348,-7.1 6.23,-3.5 9.781,-9.8 12.449,-17.8 l -11.559,-2.6 c -1.781,6.2 -4.449,10.6 -8.012,13.3 -3.546,2.7 -8.886,4.5 -14.226,4.5 -6.223,0 -12.453,-1.8 -16.902,-4.5 -3.559,-3.6 -7.11,-8 -8.891,-13.3 -1.777,-5.4 -2.668,-10.7 -2.668,-16 0,-7.2 0.891,-13.4 3.559,-18.7 1.781,-5.4 5.332,-9.8 9.781,-12.5 4.449,-2.6 8.898,-3.5 14.23,-3.5 6.231,0 11.571,1.7 16.008,5.3 4.449,3.6 7.121,8.9 8.902,16" /><path
                   id="path4891"
                   style="fill:#231f20;fill-opacity:1;fill-rule:evenodd;stroke:none"
                   d="m 213.559,1020.38 0,84.5 29.363,0 c 7.109,0 11.558,0 15.117,-0.9 5.34,-0.9 8.891,-3.6 12.449,-6.2 4.453,-3.6 8.012,-8.9 10.672,-14.3 1.781,-6.2 2.668,-12.4 2.668,-20.4 0,-6.3 -0.887,-11.6 -1.777,-16.9 -1.77,-5.4 -3.551,-8.9 -6.223,-12.5 -1.777,-3.5 -4.449,-6.2 -7.117,-8 -3.563,-1.8 -6.223,-2.7 -10.672,-3.6 -3.559,-1.7 -8.008,-1.7 -13.34,-1.7 l -31.14,0 z m 11.57,9.8 17.793,0 c 6.219,0 10.668,0.8 13.34,1.7 3.558,0.9 6.226,2.7 8,4.5 2.668,2.7 4.449,6.2 6.226,10.7 0.891,4.4 1.782,9.7 1.782,16 0,8.9 -0.891,16 -4.45,20.4 -2.672,5.4 -6.218,8 -10.672,9.8 -2.668,0.9 -7.117,1.8 -14.226,1.8 l -17.793,0 0,-64.9" /><path
                   id="path4893"
                   style="fill:#231f20;fill-opacity:1;fill-rule:evenodd;stroke:none"
                   d="m 220.68,835.328 0,84.551 61.371,0 0,-9.801 -49.813,0 0,-25.816 47.153,0 0,-9.793 -47.153,0 0,-29.348 52.481,0 0,-9.793 -64.039,0" /><path
                   id="path4895"
                   style="fill:#231f20;fill-opacity:1;fill-rule:evenodd;stroke:none"
                   d="m 228.691,649.43 0,84.5 56.918,0 0,-9.789 -45.359,0 0,-26.68 39.141,0 0,-9.789 -39.141,0 0,-38.242 -11.559,0" /><path
                   id="path4897"
                   style="fill:#231f20;fill-opacity:1;fill-rule:evenodd;stroke:none"
                   d="m 247.359,496.43 0,9.789 35.582,0 0,-31.141 c -5.332,-4.449 -10.671,-8 -16.902,-10.668 -6.219,-1.781 -11.559,-2.672 -17.789,-2.672 -8.891,0 -16.012,1.782 -23.121,5.34 -7.117,3.551 -11.57,8.891 -15.117,15.121 -3.563,7.11 -5.34,14.231 -5.34,23.129 0,8 1.777,16.012 5.34,23.121 3.547,7.121 8,12.461 14.226,16.012 7.114,2.668 14.231,4.449 23.121,4.449 6.231,0 11.571,-0.89 16.02,-2.672 5.332,-1.777 8.891,-4.437 12.449,-8 2.672,-3.558 4.453,-8.898 6.223,-14.226 l -10.672,-2.672 c -0.891,4.441 -2.668,8 -4.449,9.781 -1.782,2.668 -4.442,4.449 -8,6.231 -3.559,1.777 -7.121,2.668 -11.571,2.668 -5.328,0 -9.781,-0.891 -13.339,-2.668 -3.559,-1.782 -7.11,-3.563 -8.891,-6.231 -2.668,-2.672 -4.449,-5.34 -5.34,-8 -2.668,-5.34 -3.559,-11.57 -3.559,-17.793 0,-7.117 0.891,-13.348 3.559,-18.68 2.672,-5.339 7.121,-8.898 11.563,-11.57 5.339,-2.668 10.679,-3.558 16.007,-3.558 4.45,0 9.789,0.89 14.243,2.671 4.437,1.778 8,4.45 10.668,6.231 l 0,16.008 -24.911,0" /><path
                   id="path4899"
                   style="fill:#231f20;fill-opacity:1;fill-rule:evenodd;stroke:none"
                   d="m 215.34,276.719 0,84.511 10.68,0 0,-34.699 44.468,0 0,34.699 11.563,0 0,-84.511 -11.563,0 0,40.031 -44.468,0 0,-40.031 -10.68,0" /><path
                   id="path4901"
                   style="fill:#231f20;fill-opacity:1;fill-rule:evenodd;stroke:none"
                   d="m 190.441,1438.38 c 5.329,-4.4 10.668,-7.1 16.008,-8.9 l -3.558,-8.9 c -7.121,2.7 -14.231,6.3 -20.461,11.6 -7.11,-3.5 -15.121,-5.3 -24.008,-5.3 -8.012,0 -16.012,1.8 -23.133,6.2 -7.117,3.6 -12.449,9.8 -16.008,16.9 -4.453,8 -6.23,16 -6.23,25.8 0,9.8 1.777,17.8 6.23,25.8 3.559,8 8.891,13.3 16.008,17.8 7.121,3.5 15.121,6.2 24.02,6.2 8.89,0 16.902,-2.7 24.011,-6.2 6.231,-4.5 12.45,-10.7 16.008,-17.8 3.563,-8 5.344,-16 5.344,-25.8 0,-8 -0.891,-15.1 -3.563,-21.3 -2.668,-6.3 -6.218,-11.6 -10.668,-16.1 z m -27.582,16.1 c 7.121,-1.8 12.461,-5.4 17.789,-8.9 7.122,6.2 10.68,16.9 10.68,30.2 0,8 -0.887,14.2 -3.558,20.5 -2.668,5.3 -6.231,10.6 -11.559,13.3 -5.34,3.6 -10.68,4.4 -16.902,4.4 -9.789,0 -17.789,-2.6 -24.02,-8.8 -6.23,-7.2 -8.891,-16.1 -8.891,-29.4 0,-12.5 2.661,-22.2 8.891,-28.5 6.231,-6.2 14.231,-9.8 24.02,-9.8 4.441,0 8.89,0.9 12.453,2.7 -3.563,2.7 -8.012,4.5 -12.453,5.4 l 3.55,8.9" /><path
                   id="path4903"
                   style="fill:#231f20;fill-opacity:1;fill-rule:evenodd;stroke:none"
                   d="m 183.32,1251.58 c 6.231,-4.4 11.571,-7.1 16.899,-8.9 l -4.449,-8.8 c -6.219,2.6 -13.34,6.2 -20.45,11.5 -7.121,-3.5 -14.23,-5.3 -23.129,-5.3 -8.89,0 -16.902,1.8 -23.132,6.2 -7.11,3.6 -12.45,9.8 -16.899,16.9 -3.551,8 -5.332,16 -5.332,25.8 0,9.8 1.781,17.8 5.332,25.8 4.449,8 9.789,13.3 16.899,17.8 7.121,3.5 15.132,6.2 23.132,6.2 8.899,0 16.899,-2.7 24.02,-6.2 7.109,-4.5 12.449,-10.7 16.008,-17.8 3.551,-8 6.222,-16 6.222,-25.8 0,-8 -1.781,-15.1 -3.55,-21.3 -2.672,-6.3 -6.231,-11.6 -11.571,-16.1 z m -27.57,16.1 c 7.109,-1.8 13.34,-5.4 17.789,-8.9 8,6.2 11.563,16.9 11.563,30.2 0,8 -1.782,14.2 -4.454,20.5 -1.777,5.3 -6.218,10.6 -10.668,13.3 -5.339,3.6 -11.558,4.5 -17.789,4.5 -8.89,0 -16.902,-2.7 -23.132,-8.9 -6.219,-7.2 -8.887,-16.1 -8.887,-29.4 0,-12.5 2.668,-22.2 8.887,-28.5 6.23,-6.2 14.242,-9.7 23.132,-9.7 4.45,0 8.899,0.8 13.34,2.6 -4.441,2.7 -8,4.5 -12.453,5.4 l 2.672,8.9" /><path
                   id="path4905"
                   style="fill:#231f20;fill-opacity:1;fill-rule:evenodd;stroke:none"
                   d="m 183.32,1065.68 c 6.231,-3.5 11.571,-6.2 16.899,-8.9 l -4.449,-8 c -6.219,1.8 -13.34,6.3 -20.45,11.6 -7.121,-4.4 -14.23,-6.2 -23.129,-6.2 -8.89,0 -16.902,1.8 -23.132,6.2 -7.11,4.4 -12.45,9.8 -16.899,17.8 -3.551,7.1 -5.332,16 -5.332,25.8 0,8.9 1.781,17.8 5.332,25.8 4.449,7.1 9.789,13.3 16.899,16.9 7.121,4.4 14.242,6.2 23.132,6.2 8.899,0 16.899,-1.8 24.02,-6.2 7.109,-4.5 12.449,-9.8 16.008,-17.8 3.551,-7.1 6.222,-16 6.222,-24.9 0,-8 -1.781,-15.1 -3.55,-21.4 -2.672,-6.2 -6.231,-11.5 -11.571,-16.9 z m -27.57,16.9 c 7.109,-2.6 13.34,-5.3 17.789,-9.7 8,7.1 11.563,16.9 11.563,31.1 0,7.1 -1.782,14.2 -4.454,19.6 -1.777,6.2 -6.218,10.6 -11.558,14.2 -4.449,2.7 -10.668,4.4 -16.899,4.4 -8.89,0 -16.902,-3.5 -23.132,-9.8 -6.219,-6.2 -8.887,-16 -8.887,-28.4 0,-12.5 2.668,-22.3 8.887,-29.4 6.23,-6.2 14.242,-9.8 23.132,-9.8 4.45,0 8.899,0.9 13.34,2.7 -4.441,2.7 -8,4.5 -12.453,5.4 l 2.672,9.7" /><path
                   id="path4907"
                   style="fill:#231f20;fill-opacity:1;fill-rule:evenodd;stroke:none"
                   d="m 190.441,878.922 c 5.329,-3.563 11.559,-6.231 16.008,-8.902 l -3.558,-8 c -7.121,1.781 -14.231,6.218 -20.461,11.558 -7.11,-4.449 -15.121,-6.219 -24.008,-6.219 -8.012,0 -16.012,1.77 -23.133,6.219 -7.117,4.453 -12.449,9.793 -16.008,17.793 -4.453,7.117 -6.23,16.008 -6.23,25.809 0,8.902 1.777,17.8 6.23,25.8 3.559,7.098 8.891,13.301 16.008,16.899 7.121,4.402 15.121,6.203 24.02,6.203 8.89,0 16.902,-1.801 24.011,-6.203 7.121,-4.5 12.45,-9.801 16.008,-17.801 3.563,-7.098 5.344,-15.996 5.344,-24.898 0,-8 -0.891,-15.102 -3.563,-21.36 -2.668,-6.23 -6.218,-11.558 -10.668,-16.898 z m -27.582,16.898 c 7.121,-2.672 13.352,-5.34 17.789,-9.781 7.122,7.109 10.68,16.941 10.68,31.141 0,7.101 -0.887,14.199 -3.558,19.601 -2.668,6.199 -6.231,10.598 -11.559,14.199 -5.34,2.7 -10.68,4.399 -16.902,4.399 -9.789,0 -17.789,-3.5 -24.02,-9.699 -6.23,-6.301 -8.891,-16.102 -8.891,-28.5 0,-12.5 2.661,-22.25 8.891,-29.371 6.231,-6.219 14.231,-9.778 24.02,-9.778 4.441,0 8.89,0.891 12.453,2.668 -3.563,2.672 -8.012,4.449 -12.453,5.34 l 3.55,9.781" /><path
                   id="path4909"
                   style="fill:#231f20;fill-opacity:1;fill-rule:evenodd;stroke:none"
                   d="m 196.66,693.898 c 6.231,-4.449 11.57,-7.109 16.899,-8.886 l -4.438,-8.903 c -6.23,2.672 -13.351,6.231 -20.461,11.563 -7.121,-3.551 -14.23,-5.332 -23.129,-5.332 -8.89,0 -16.011,1.781 -23.121,6.219 -7.121,3.562 -12.461,9.793 -16.898,16.902 -3.563,8.008 -5.34,16.91 -5.34,25.801 0,9.789 1.777,17.789 5.34,25.797 4.437,8 9.777,13.339 16.898,17.793 7.11,3.546 15.121,6.218 23.121,6.218 8.899,0 16.899,-2.672 24.02,-6.218 7.109,-4.454 12.449,-10.68 16.008,-17.793 4.453,-8.008 6.23,-16.008 6.23,-25.797 0,-8 -1.777,-15.121 -3.559,-21.352 -2.671,-6.219 -6.23,-11.558 -11.57,-16.012 z m -27.57,16.012 c 7.121,-1.781 13.34,-5.332 17.789,-8.89 8.012,6.218 11.562,16.902 11.562,30.242 0,8.008 -1.781,15.117 -3.55,20.457 -2.672,5.34 -7.121,10.672 -11.571,13.34 -5.332,3.562 -10.672,5.339 -17.789,5.339 -8.89,0 -16.902,-3.558 -23.121,-9.789 -6.23,-7.109 -8.898,-16.007 -8.898,-29.347 0,-12.453 2.668,-22.242 8.898,-28.461 6.219,-6.231 14.231,-9.789 23.121,-9.789 5.34,0 8.899,0.886 13.34,2.668 -4.441,2.672 -8,4.449 -12.449,5.34 l 2.668,8.89" /><path
                   id="path4911"
                   style="fill:#231f20;fill-opacity:1;fill-rule:evenodd;stroke:none"
                   d="m 177.102,507.102 c 6.218,-4.442 11.558,-7.114 16.007,-8.891 l -3.558,-8.902 c -7.121,2.671 -13.34,6.23 -20.461,11.57 -7.121,-3.559 -15.121,-5.34 -23.129,-5.34 -8.891,0 -16.902,1.781 -24.012,6.231 -7.121,3.558 -12.449,9.781 -16.008,16.902 -3.562,8 -5.339,16.898 -5.339,25.789 0,9.789 1.777,17.789 5.339,25.801 3.559,8.008 8.887,13.34 16.008,17.789 7.11,3.558 15.121,6.23 24.012,6.23 8.898,0 16.898,-2.672 24.019,-6.23 7.122,-4.449 12.45,-10.672 16.008,-17.789 3.563,-8.012 5.34,-16.012 5.34,-25.801 0,-8 -0.887,-15.121 -3.558,-21.34 -1.782,-6.23 -6.231,-11.57 -10.668,-16.019 z m -27.582,16.019 c 7.121,-1.781 13.339,-5.34 17.789,-8.902 7.121,6.23 11.562,16.902 11.562,30.242 0,8.008 -1.769,15.129 -4.441,20.461 -2.668,5.34 -6.231,10.68 -11.571,13.348 -5.328,3.55 -10.668,5.332 -16.898,5.332 -9.781,0 -16.902,-3.563 -23.121,-9.782 -6.231,-7.121 -9.789,-16.011 -9.789,-29.359 0,-12.449 3.558,-22.231 9.789,-28.461 5.332,-6.23 13.34,-9.781 23.121,-9.781 4.449,0 8.898,0.883 12.461,2.66 -3.563,2.672 -8.012,4.449 -12.461,5.34 l 3.559,8.902" /><path
                   id="path4913"
                   style="fill:#231f20;fill-opacity:1;fill-rule:evenodd;stroke:none"
                   d="m 183.32,320.309 c 6.231,-4.45 11.571,-7.118 16.899,-8.899 l -4.449,-8.89 c -6.219,2.671 -13.34,6.218 -20.45,11.558 -7.121,-3.558 -14.23,-5.34 -23.129,-5.34 -8.89,0 -16.011,1.782 -23.132,6.231 -7.11,3.562 -12.45,9.793 -16.899,16.902 -3.551,8.008 -5.332,16.899 -5.332,25.801 0,9.777 1.781,17.789 5.332,25.789 4.449,8.008 9.789,13.348 16.899,17.789 7.121,3.559 15.132,6.23 23.132,6.23 8.899,0 16.899,-2.671 24.02,-6.23 7.109,-4.441 12.449,-10.672 16.008,-17.789 4.441,-8 6.222,-16.012 6.222,-25.789 0,-8.012 -1.781,-15.121 -3.55,-21.352 -2.672,-6.23 -6.231,-11.558 -11.571,-16.011 z m -27.57,16.011 c 7.109,-1.781 13.34,-5.34 17.789,-8.898 8,6.226 11.563,16.898 11.563,30.25 0,8 -1.782,15.117 -3.563,20.457 -2.668,5.332 -7.109,10.672 -11.559,13.34 -5.339,3.562 -10.671,5.34 -17.789,5.34 -8.89,0 -16.902,-3.559 -23.132,-9.789 -6.219,-7.11 -8.887,-16.008 -8.887,-29.348 0,-12.461 2.668,-22.242 8.887,-28.473 6.23,-6.219 14.242,-9.777 23.132,-9.777 5.34,0 8.899,0.887 13.34,2.668 -4.441,2.672 -8,4.441 -12.453,5.332 l 2.672,8.898" /><path
                   id="path4915"
                   style="fill:#231f20;fill-opacity:1;fill-rule:evenodd;stroke:none"
                   d="m 48.1211,161.98 0,11.559 40.0273,0 0,-35.578 c -6.2265,-5.34 -12.4492,-8.902 -18.6796,-11.563 -7.1172,-1.777 -13.3399,-3.558 -20.4571,-3.558 -9.7812,0 -17.7929,1.781 -25.7929,6.219 -8.0079,3.562 -13.34771,9.793 -16.89849,16.902 -4.44922,8.008 -6.2304662,16.91 -6.2304662,25.801 0,9.777 1.7812462,17.789 5.3398462,25.797 4.4414,8 9.78121,14.23 16.89841,18.679 8,3.551 16.0117,5.332 25.793,5.332 6.2305,0 12.4492,-0.89 18.6797,-3.558 5.3398,-1.774 9.7773,-5.332 13.3398,-8.891 2.668,-4.449 5.3399,-8.902 7.1211,-16.012 l -11.5625,-2.668 c -1.7773,4.45 -3.5586,8.899 -5.3398,11.559 -2.668,2.672 -5.3399,4.449 -8.8985,6.23 -4.4414,1.782 -8.8906,2.668 -13.3398,2.668 -6.2227,0 -10.6719,-0.886 -15.1211,-2.668 -4.4492,-1.781 -8,-4.449 -10.6719,-7.121 -1.7773,-2.66 -4.4492,-6.218 -5.3398,-8.89 -2.668,-6.231 -3.5586,-12.449 -3.5586,-19.571 0,-8.898 0.8906,-16.007 3.5586,-21.347 3.5625,-5.34 8.0117,-9.781 13.3398,-12.449 5.3438,-2.672 11.5703,-4.454 17.793,-4.454 5.3398,0 10.6797,0.891 16.0078,2.672 5.3399,2.668 8.9023,4.45 11.5703,7.121 l 0,17.789 -27.5781,0" /><path
                   id="path4917"
                   style="fill:#231f20;fill-opacity:1;fill-rule:evenodd;stroke:none"
                   d="m 106.828,124.621 0,95.168 13.344,0 49.808,-74.711 0,74.711 12.45,0 0,-95.168 -13.34,0 -49.809,74.719 0,-74.719 -12.453,0" /><path
                   id="path4919"
                   style="fill:#231f20;fill-opacity:1;fill-rule:evenodd;stroke:none"
                   d="m 203.781,124.621 0,95.168 32.91,0 c 7.118,0 12.45,0 16.899,-0.891 5.34,-1.769 9.789,-3.546 13.34,-7.109 5.34,-4.449 8.898,-9.789 11.57,-16.008 2.66,-7.121 3.551,-14.242 3.551,-23.133 0,-7.117 -0.891,-13.339 -2.66,-18.679 -0.891,-6.231 -3.563,-10.668 -6.231,-14.231 -2.672,-3.558 -5.34,-6.226 -8.898,-8.898 -2.66,-1.781 -6.223,-3.559 -11.563,-4.442 -3.558,-0.886 -8.89,-1.777 -15.121,-1.777 l -33.797,0 z m 12.449,11.559 20.461,0 c 6.231,0 10.668,0 14.231,1.781 3.558,0.891 7.117,2.668 8.898,4.449 2.668,3.551 5.328,7.11 7.11,12.449 1.781,4.45 2.672,10.672 2.672,17.789 0,10.672 -1.782,17.793 -5.34,23.133 -3.551,5.328 -7.114,8.891 -11.563,10.668 -3.558,1.781 -8.89,2.672 -16.898,2.672 l -19.571,0 0,-72.941" /><path
                   id="path4921"
                   style="fill:#231f20;fill-opacity:1;fill-rule:evenodd;stroke:none"
                   d="m 1166.19,1428.68 -36.5,95.1 13.4,0 24.9,-69.3 c 1.8,-5.4 3.5,-10.7 5.3,-15.2 0.9,4.5 2.7,9.8 4.5,15.2 l 25.8,69.3 13.3,0 -37.4,-95.1 -13.3,0" /><path
                   id="path4923"
                   style="fill:#231f20;fill-opacity:1;fill-rule:evenodd;stroke:none"
                   d="m 1288.09,1424.18 10.6,-3.6 c -1.7,-8.8 -6.2,-16 -12.4,-20.4 -6.2,-5.3 -13.4,-8 -22.3,-8 -8.8,0 -16.9,2.7 -22.2,6.2 -6.2,3.6 -10.7,8.9 -13.3,16 -2.7,7.1 -4.5,14.3 -4.5,23.1 0,8.1 1.8,16.1 5.4,23.2 2.6,6.2 8,11.5 14.2,14.2 6.2,3.6 13.3,5.3 20.4,5.3 8.9,0 16.1,-1.7 21.4,-6.2 6.2,-4.4 9.8,-10.7 12.4,-18.7 l -11.5,-2.6 c -1.8,6.2 -4.5,10.6 -8,14.2 -4.5,2.7 -8.9,3.6 -14.3,3.6 -7.1,0 -12.4,-0.9 -16.9,-4.5 -4.4,-2.7 -7.1,-7.1 -8.8,-12.4 -1.8,-5.4 -2.7,-10.7 -2.7,-16.1 0,-8 0.9,-14.2 2.7,-19.5 2.6,-5.4 6.2,-8.9 10.6,-11.6 4.5,-2.7 8.9,-4.4 14.3,-4.4 6.2,0 11.5,1.7 16,5.3 4.4,3.6 7.1,9.8 8.9,16.9" /><path
                   id="path4925"
                   style="fill:#231f20;fill-opacity:1;fill-rule:evenodd;stroke:none"
                   d="m 1373.49,1424.18 11.5,-3.6 c -2.7,-8.8 -7.1,-16 -13.3,-20.4 -5.4,-5.3 -13.4,-8 -22.3,-8 -8.9,0 -16,2.7 -22.2,6.2 -5.3,3.6 -9.8,8.9 -13.3,16 -2.7,7.1 -4.5,14.3 -4.5,23.1 0,8.1 1.8,16.1 5.3,23.2 3.6,6.2 8.1,11.5 14.3,14.2 6.2,3.6 13.3,5.3 20.4,5.3 8.9,0 16,-1.7 21.4,-6.2 6.2,-4.4 10.7,-10.7 12.4,-18.7 l -10.6,-2.6 c -2.7,6.2 -5.4,10.6 -8.9,14.2 -3.6,2.7 -8.9,3.6 -14.3,3.6 -6.2,0 -11.5,-0.9 -16,-4.5 -4.4,-2.7 -8,-7.1 -9.8,-12.4 -1.7,-5.4 -2.6,-10.7 -2.6,-16.1 0,-8 1.8,-14.2 3.5,-19.5 1.8,-5.4 5.4,-8.9 9.8,-11.6 4.5,-2.7 8.9,-4.4 14.2,-4.4 6.3,0 11.6,1.7 16.1,5.3 4.4,3.6 7.1,9.8 8.9,16.9" /><path
                   id="path4927"
                   style="fill:#231f20;fill-opacity:1;fill-rule:evenodd;stroke:none"
                   d="m 1211.59,1252.48 c 6.2,-4.4 11.5,-7.1 16,-8.9 l -3.6,-8.9 c -7.1,2.7 -13.3,6.3 -20.4,11.6 -7.2,-4.4 -15.2,-6.2 -23.2,-6.2 -8.9,0 -16.9,2.6 -24,6.2 -7.1,4.5 -12.4,10.7 -16,17.8 -3.5,8 -5.3,16 -5.3,25.8 0,8.9 1.8,17.8 5.3,25.8 3.6,7.1 8.9,13.3 16,17.8 7.1,3.5 15.1,5.3 24,5.3 8.9,0 16.9,-1.8 24.1,-6.2 7.1,-3.6 12.4,-9.8 16,-17.8 3.5,-7.1 5.3,-16 5.3,-24.9 0,-8 -0.9,-15.1 -3.6,-21.4 -1.7,-6.2 -5.3,-11.5 -10.6,-16 z m -27.6,16 c 7.1,-2.6 13.3,-5.3 17.8,-9.7 7.1,7.1 11.5,17.7 11.5,31.1 0,8 -1.7,14.2 -4.4,20.5 -2.7,5.3 -6.2,9.7 -11.6,13.3 -4.4,2.7 -10.6,4.4 -16.9,4.4 -9.7,0 -16.9,-3.5 -23.1,-9.7 -6.2,-6.3 -9.8,-16.1 -9.8,-28.5 0,-12.5 3.6,-22.2 9.8,-28.5 5.3,-7.1 13.4,-10.6 23.1,-10.6 4.5,0 8.9,0.8 12.5,2.6 -3.6,2.7 -8,4.5 -12.5,5.4 l 3.6,9.7" /><path
                   id="path4929"
                   style="fill:#231f20;fill-opacity:1;fill-rule:evenodd;stroke:none"
                   d="m 1135.09,1086.18 11.5,0.9 c 0.9,-5.4 1.8,-8.9 4.5,-11.6 1.8,-3.5 5.3,-6.2 9.8,-8 4.4,-1.8 8.9,-2.7 14.2,-2.7 5.3,0 8.9,0.9 12.5,1.8 4.4,1.8 7.1,3.6 8.8,6.3 1.8,2.6 2.7,5.3 2.7,8 0,3.5 -0.9,6.2 -2.7,8 -1.7,2.6 -4.4,4.4 -8.8,5.3 -2.7,1.8 -8.1,2.7 -16.9,5.3 -8.9,1.8 -15.2,3.6 -18.7,5.4 -4.5,2.6 -8,5.3 -9.8,8.9 -2.7,3.5 -3.6,8 -3.6,12.4 0,4.5 1.8,8.9 4.5,13.4 2.6,4.4 6.2,7.1 11.5,9.7 5.4,1.8 11.6,2.7 17.8,2.7 7.1,0 13.4,-0.9 18.7,-3.5 5.3,-1.8 9.8,-5.4 12.5,-9.8 2.6,-4.5 4.4,-8.9 4.4,-15.1 l -11.6,-0.9 c -0.8,6.2 -3.5,10.6 -7.1,14.2 -3.5,2.7 -8.9,4.4 -16.9,4.4 -7.1,0 -12.4,-1.7 -16,-4.4 -3.5,-2.7 -5.3,-6.2 -5.3,-9.8 0,-3.5 0.9,-6.2 3.5,-8.9 2.7,-1.8 8.9,-4.4 18.7,-7.1 10.7,-1.8 17.8,-3.6 21.4,-5.3 5.3,-2.7 9.8,-6.3 12.4,-9.8 2.7,-4.5 3.6,-8.9 3.6,-14.3 0,-4.4 -0.9,-9.7 -3.6,-14.2 -3.5,-4.4 -7.1,-8 -13.3,-10.7 -5.4,-1.7 -11.6,-3.5 -17.8,-3.5 -8.9,0 -16,1.8 -22.2,4.4 -5.4,1.8 -9.8,6.3 -13.4,10.7 -3.5,5.3 -5.3,10.7 -5.3,17.8" /><path
                   id="path4931"
                   style="fill:#231f20;fill-opacity:1;fill-rule:evenodd;stroke:none"
                   d="m 1228.49,1055.08 0,95.1 69.3,0 0,-10.6 -56.9,0 0,-29.4 53.4,0 0,-11.6 -53.4,0 0,-32 58.7,0 0,-11.5 -71.1,0" /><path
                   id="path4933"
                   style="fill:#231f20;fill-opacity:1;fill-rule:evenodd;stroke:none"
                   d="m 1317.39,1055.08 0,95.1 42.7,0 c 8,0 15.1,-0.9 19.6,-1.7 4.4,-1.8 8,-5.4 10.7,-9.8 1.7,-4.5 3.5,-8.9 3.5,-14.3 0,-6.2 -1.8,-12.4 -6.2,-16.9 -4.5,-4.4 -11.6,-8 -20.5,-8.9 2.7,-1.7 5.4,-3.5 7.1,-4.4 3.6,-3.6 7.2,-8 10.7,-13.3 l 16.9,-25.8 -16,0 -12.4,19.5 c -3.6,6.3 -7.2,10.7 -9.8,13.4 -1.8,3.5 -4.5,5.3 -6.3,6.2 -1.7,1.8 -3.5,2.7 -5.3,2.7 -1.8,0.9 -4.4,0.9 -7.1,0.9 l -15.1,0 0,-42.7 -12.5,0 z m 12.5,53.3 27.5,0 c 5.4,0 9.8,0.9 13.4,1.8 3.5,0.9 6.2,3.6 7.1,5.3 1.8,2.7 2.7,6.3 2.7,8.9 0,4.5 -1.8,8 -4.5,11.6 -3.5,2.7 -8.9,4.5 -16,4.5 l -30.2,0 0,-32.1" /><path
                   id="path4935"
                   style="fill:#231f20;fill-opacity:1;fill-rule:evenodd;stroke:none"
                   d="m 1232.89,1207.18 32,85.4 12.5,0 34.7,-85.4 -12.5,0 -10.6,25.8 -34.7,0 -9.8,-25.8 -11.6,0 z m 24,35.5 29.4,0 -8.9,23.2 c -2.7,7.1 -5.3,13.3 -6.2,17.8 -0.9,-5.4 -2.7,-10.7 -4.5,-16 l -9.8,-25" /><path
                   id="path4937"
                   style="fill:#231f20;fill-opacity:1;fill-rule:evenodd;stroke:none"
                   d="m 1135.09,916.281 c 0,16 4.4,28.5 13.3,37.399 8,8.898 19.6,13.3 32.9,13.3 8.9,0 16.9,-2.699 24,-6.199 7.2,-4.5 12.5,-10.703 16.1,-17.801 3.5,-8 5.3,-16 5.3,-25.8 0,-9.801 -1.8,-18.692 -6.2,-25.809 -3.6,-8 -8.9,-13.34 -16,-17.793 -7.2,-3.558 -15.2,-5.34 -23.2,-5.34 -8.9,0 -16.9,1.782 -24,6.231 -7.1,4.453 -12.4,10.679 -16,17.793 -4.4,7.117 -6.2,15.117 -6.2,24.019 z m 13.3,0 c 0,-11.601 3.6,-21.351 8.9,-27.582 6.2,-6.219 14.2,-9.777 24,-9.777 8.9,0 16.9,3.558 23.2,9.777 6.2,7.121 8.8,15.981 8.8,28.481 0,8 -0.8,14.199 -3.5,20.398 -2.7,6.301 -6.2,10.703 -11.6,13.402 -5.3,3.5 -10.6,5.301 -16.9,5.301 -8.9,0 -16.9,-3.5 -23.1,-9.801 -6.2,-6.199 -9.8,-16 -9.8,-30.199" /><path
                   id="path4939"
                   style="fill:#231f20;fill-opacity:1;fill-rule:evenodd;stroke:none"
                   d="m 1243.59,870.02 0,95.16 68.5,0 0,-11.5 -56.1,0 0,-29.399 52.5,0 0,-10.703 -52.5,0 0,-32.879 58.7,0 0,-10.679 -71.1,0" /><path
                   id="path4941"
                   style="fill:#231f20;fill-opacity:1;fill-rule:evenodd;stroke:none"
                   d="m 1128.79,988.281 193.02,0 0,16.8984 -193.02,0 0,-16.8984 z" /><path
                   id="path4943"
                   style="fill:#231f20;fill-opacity:1;fill-rule:evenodd;stroke:none"
                   d="m 1139.49,683.23 0,95.168 42.7,0 c 8,0 14.2,-0.878 18.7,-2.66 4.4,-1.777 8,-4.449 10.7,-8.898 2.6,-4.449 4.4,-8.891 4.4,-14.231 0,-7.121 -2.7,-12.449 -7.1,-16.898 -4.4,-5.34 -10.7,-8.012 -19.6,-8.902 2.7,-1.778 5.4,-3.547 7.1,-5.329 3.6,-3.558 7.2,-7.121 10.7,-12.46 l 16.9,-25.79 -16,0 -13.3,19.571 c -3.6,6.219 -6.3,9.777 -8.9,13.34 -1.8,2.668 -4.5,5.339 -6.3,6.23 -1.7,0.891 -3.5,1.77 -5.3,2.66 -1.8,0 -4.4,0 -7.1,0 l -15.1,0 0,-41.801 -12.5,0 z m 12.5,53.372 27.5,0 c 5.4,0 9.8,0 13.4,1.777 3.5,0.891 5.3,2.672 7.1,5.332 1.8,2.668 2.7,5.34 2.7,8.898 0,4.45 -1.8,8 -4.5,10.672 -3.5,3.559 -8.9,4.449 -16,4.449 l -30.2,0 0,-31.128" /><path
                   id="path4945"
                   style="fill:#231f20;fill-opacity:1;fill-rule:evenodd;stroke:none"
                   d="m 1304.09,716.141 12.4,-2.672 c -2.6,-10.668 -8,-18.68 -14.2,-24.02 -7.1,-5.328 -15.1,-8 -25.8,-8 -9.8,0 -18.7,1.781 -24.9,6.223 -6.2,4.449 -11.6,10.68 -14.2,17.789 -3.6,8.008 -5.4,16.91 -5.4,25.801 0,9.789 1.8,18.679 5.4,25.797 4.4,8 9.7,13.339 16.9,16.902 6.2,4.437 14.2,6.219 23.1,6.219 8.9,0 16.9,-2.66 24,-7.11 6.2,-5.34 10.7,-11.57 13.3,-20.461 l -12.4,-3.558 c -1.8,7.121 -5.3,12.449 -9.8,15.121 -4.4,3.558 -9.8,5.34 -16,5.34 -7.1,0 -13.3,-1.782 -17.8,-5.34 -5.3,-3.563 -8.9,-8 -10.7,-14.231 -1.7,-6.23 -2.6,-12.453 -2.6,-18.679 0,-8 0.9,-15.121 3.5,-21.352 1.8,-5.332 5.4,-10.672 10.7,-13.34 5.3,-2.672 10.7,-4.449 16,-4.449 7.1,0 13.4,1.777 17.8,6.231 5.3,4.449 8.9,9.777 10.7,17.789" /><path
                   id="path4947"
                   style="fill:#231f20;fill-opacity:1;fill-rule:evenodd;stroke:none"
                   d="m 1331.59,683.23 0,95.168 12.5,0 0,-84.5 47.1,0 0,-10.668 -59.6,0" /><path
                   id="path4949"
                   style="fill:#231f20;fill-opacity:1;fill-rule:evenodd;stroke:none"
                   d="m 1405.49,683.23 0,95.168 12.4,0 0,-47.136 48.1,47.136 16.9,0 -40.1,-38.238 41.8,-56.93 -16.9,0 -33.8,48.032 -16,-15.121 0,-32.911 -12.4,0" /><path
                   id="path4951"
                   style="fill:#231f20;fill-opacity:1;fill-rule:evenodd;stroke:none"
                   d="m 1135.09,527.559 11.5,1.781 c 0.9,-5.328 1.8,-8.891 4.5,-12.449 1.8,-2.672 5.3,-5.34 9.8,-7.121 3.5,-1.782 8.9,-2.668 14.2,-2.668 4.4,0 8.9,0.886 12.5,1.777 4.4,1.781 7.1,3.562 8.8,6.23 1.8,2.672 2.7,5.34 2.7,8.012 0,2.66 -0.9,5.328 -2.7,8 -1.7,1.777 -4.4,4.449 -8.8,5.34 -2.7,0.891 -8.1,2.668 -16.9,4.449 -8.9,2.66 -15.2,4.442 -18.7,6.219 -4.5,2.672 -8,5.34 -9.8,8.902 -2.7,3.559 -3.6,8 -3.6,12.449 0,4.45 1.8,8.899 4.5,13.34 2.6,3.559 6.2,7.121 11.5,8.899 5.4,2.672 11.6,3.562 17.8,3.562 7.1,0 13.4,-0.89 18.7,-3.562 5.3,-1.778 9.8,-5.34 12.5,-9.789 2.6,-4.442 4.4,-9.782 4.4,-15.121 l -11.6,-0.887 c -0.8,6.226 -3.5,10.68 -7.1,13.348 -3.5,3.55 -8.9,5.332 -16.9,5.332 -7.1,0 -13.3,-1.782 -16,-4.454 -3.5,-2.66 -5.3,-6.218 -5.3,-10.668 0,-2.671 0.9,-6.23 3.5,-8 2.7,-2.671 8.9,-4.449 18.7,-7.121 10.7,-1.781 17.8,-4.449 21.4,-6.23 5.3,-1.777 9.8,-5.328 12.4,-9.777 2.7,-3.563 3.6,-8.012 3.6,-13.34 0,-4.453 -0.9,-9.793 -4.5,-14.242 -2.6,-4.442 -7.1,-8 -12.4,-10.668 -5.4,-2.672 -11.6,-3.563 -17.8,-3.563 -8.9,0 -16,1.781 -22.2,3.563 -5.4,2.668 -9.8,6.226 -13.4,11.558 -3.5,5.34 -5.3,10.68 -5.3,16.899" /><path
                   id="path4953"
                   style="fill:#231f20;fill-opacity:1;fill-rule:evenodd;stroke:none"
                   d="m 1228.49,497.32 0,95.18 42.7,0 c 8,0 14.2,-0.891 18.6,-2.672 4.5,-1.777 8,-4.449 10.7,-8.898 2.7,-4.442 4.5,-8.891 4.5,-14.231 0,-7.109 -2.7,-12.449 -7.2,-16.898 -4.4,-4.449 -10.6,-8 -19.5,-8.891 2.6,-1.781 5.3,-3.558 7.1,-5.34 3.6,-2.672 7.1,-7.121 10.7,-12.449 l 16.9,-25.801 -16,0 -12.5,19.571 c -4.4,6.23 -7.1,10.668 -9.8,13.339 -1.8,2.668 -4.4,5.34 -6.2,6.231 -1.8,1.777 -3.6,2.668 -5.3,2.668 -1.8,0 -4.5,0.891 -7.2,0.891 l -15.1,0 0,-42.7 -12.4,0 z m 12.4,53.371 27.6,0 c 5.3,0 9.8,0.887 13.3,1.778 3.6,0.89 5.4,2.672 7.2,5.34 1.7,2.671 2.6,6.222 2.6,8.89 0,4.449 -1.8,8.012 -4.4,11.571 -3.6,2.66 -8.9,3.55 -16,3.55 l -30.3,0 0,-31.129" /><path
                   id="path4955"
                   style="fill:#231f20;fill-opacity:1;fill-rule:evenodd;stroke:none"
                   d="m 1392.99,531.121 12.5,-3.562 c -2.7,-10.668 -7.1,-18.68 -14.3,-24.008 -7.1,-5.34 -15.1,-8.012 -25.8,-8.012 -9.7,0 -18.6,1.781 -24.9,6.231 -6.2,4.449 -11.5,10.671 -14.2,18.679 -3.5,8 -5.3,16.012 -5.3,24.903 0,10.679 1.8,18.679 5.3,26.687 4.5,7.109 9.8,12.449 16.9,16.902 6.2,3.559 14.2,5.34 23.1,5.34 8.9,0 16.9,-2.672 24.1,-7.121 6.2,-5.34 10.6,-11.558 13.3,-20.461 l -12.5,-2.668 c -1.7,6.231 -5.3,11.571 -9.7,15.117 -4.5,2.672 -8.9,4.454 -16.1,4.454 -7.1,0 -13.3,-1.782 -17.7,-5.332 -5.4,-3.559 -8.9,-8.008 -10.7,-14.239 -1.8,-6.222 -2.7,-11.562 -2.7,-18.679 0,-8 0.9,-15.122 3.6,-20.461 1.8,-6.219 5.3,-10.672 10.6,-14.231 5.4,-2.672 10.7,-4.441 16.1,-4.441 7.1,0 13.3,2.66 17.7,6.222 5.4,4.45 8.9,10.68 10.7,18.68" /><path
                   id="path4957"
                   style="fill:#231f20;fill-opacity:1;fill-rule:evenodd;stroke:none"
                   d="m 1420.59,497.32 0,95.18 12.4,0 0,-83.621 47.2,0 0,-11.559 -59.6,0" /><path
                   id="path4959"
                   style="fill:#231f20;fill-opacity:1;fill-rule:evenodd;stroke:none"
                   d="m 1494.39,497.32 0,95.18 12.5,0 0,-47.148 48,47.148 16.9,0 -40,-38.25 41.8,-56.93 -16.9,0 -33.8,48.032 -16,-15.122 0,-32.91 -12.5,0" /><path
                   id="path4961"
                   style="fill:#231f20;fill-opacity:1;fill-rule:evenodd;stroke:none"
                   d="m 1135.09,341.66 11.5,0.891 c 0.9,-4.449 1.8,-8.903 4.5,-11.571 1.8,-3.558 5.3,-6.218 9.8,-8 3.5,-1.781 8.9,-2.671 14.2,-2.671 4.4,0 8.9,0.89 12.5,2.671 4.4,0.891 7.1,2.668 8.8,5.329 1.8,2.671 2.7,5.339 2.7,8.011 0,3.559 -0.9,6.231 -2.7,8 -1.7,2.668 -4.4,4.45 -8.8,6.231 -2.7,0.89 -8.1,1.777 -16.9,4.449 -8.9,1.781 -15.2,3.559 -18.7,5.34 -4.5,2.66 -8,5.332 -9.8,8.89 -2.7,3.559 -3.6,8.008 -3.6,12.45 0,4.449 1.8,8.898 4.5,13.351 2.6,4.438 6.2,7.11 11.5,9.778 5.4,1.781 11.6,2.671 17.8,2.671 7.1,0 13.4,-0.89 18.7,-2.671 5.3,-2.668 9.8,-6.231 12.5,-10.668 2.6,-4.45 4.4,-8.903 4.4,-15.121 l -11.6,-0.891 c -0.8,6.223 -3.5,10.672 -7.1,14.23 -3.5,2.672 -8.9,4.45 -16.9,4.45 -7.1,0 -13.3,-1.778 -16,-4.45 -3.5,-2.668 -5.3,-6.23 -5.3,-9.789 0,-3.55 0.9,-6.218 3.5,-8.89 2.7,-1.782 8.9,-4.45 18.7,-6.231 10.7,-2.668 17.8,-4.449 21.4,-6.219 5.3,-2.671 9.8,-6.23 12.4,-9.789 2.7,-4.453 3.6,-8.89 3.6,-13.339 0,-5.34 -0.9,-10.68 -4.5,-15.122 -2.6,-4.449 -7.1,-8.011 -12.4,-9.789 -5.4,-2.671 -11.6,-4.453 -17.8,-4.453 -8.9,0 -16,1.782 -22.2,4.453 -5.4,1.778 -9.8,6.231 -13.4,10.68 -3.5,5.328 -5.3,11.559 -5.3,17.789" /><path
                   id="path4963"
                   style="fill:#231f20;fill-opacity:1;fill-rule:evenodd;stroke:none"
                   d="m 1228.49,310.52 0,96.07 42.7,0 c 8,0 14.2,-0.891 18.6,-2.668 4.5,-1.781 8,-5.344 10.7,-9.781 2.7,-3.563 4.5,-8.903 4.5,-14.231 0,-6.23 -2.7,-12.461 -7.2,-16.91 -4.4,-4.441 -10.6,-8 -19.5,-8.891 2.6,-1.781 5.3,-3.558 7.1,-4.449 3.6,-3.558 7.1,-8 10.7,-13.34 l 16.9,-25.8 -16,0 -12.5,20.46 c -4.4,5.34 -7.1,9.79 -9.8,12.461 -1.8,3.547 -4.4,5.329 -6.2,7.11 -1.8,0.89 -3.6,1.777 -5.3,1.777 -1.8,0.891 -4.5,0.891 -7.2,0.891 l -15.1,0 0,-42.699 -12.4,0 z m 12.4,53.371 27.6,0 c 5.3,0 9.8,0.89 13.3,1.781 3.6,1.777 5.4,3.558 7.2,6.226 1.7,2.672 2.6,5.34 2.6,8.012 0,4.442 -1.8,8.891 -4.4,11.559 -3.6,2.672 -8.9,4.453 -16,4.453 l -30.3,0 0,-32.031" /><path
                   id="path4965"
                   style="fill:#231f20;fill-opacity:1;fill-rule:evenodd;stroke:none"
                   d="m 1392.99,344.32 12.5,-3.55 c -2.7,-9.79 -7.1,-17.79 -14.3,-23.129 -7.1,-6.231 -15.1,-8.903 -25.8,-8.903 -9.7,0 -18.6,2.672 -24.9,6.231 -6.2,4.453 -11.5,10.679 -14.2,18.679 -3.5,8.012 -5.3,16.012 -5.3,25.801 0,9.781 1.8,18.68 5.3,25.789 4.5,7.121 9.8,13.34 16.9,16.903 6.2,3.558 14.2,5.339 23.1,5.339 8.9,0 16.9,-1.781 24.1,-7.121 6.2,-4.437 10.6,-11.558 13.3,-20.449 l -12.5,-2.672 c -1.7,7.114 -5.3,11.563 -9.7,15.121 -4.5,2.672 -8.9,4.45 -16.1,4.45 -7.1,0 -13.3,-1.778 -17.7,-5.34 -5.4,-3.559 -8.9,-8.008 -10.7,-14.231 -1.8,-5.34 -2.7,-11.566 -2.7,-17.789 0,-8.008 0.9,-15.129 3.6,-21.347 1.8,-6.231 5.3,-10.68 10.6,-13.34 5.4,-3.563 10.7,-4.453 16.1,-4.453 7.1,0 13.3,1.781 17.7,5.339 5.4,4.442 8.9,10.672 10.7,18.672" /><path
                   id="path4967"
                   style="fill:#231f20;fill-opacity:1;fill-rule:evenodd;stroke:none"
                   d="m 1420.59,310.52 0,96.07 12.4,0 0,-84.5 47.2,0 0,-11.57 -59.6,0" /><path
                   id="path4969"
                   style="fill:#231f20;fill-opacity:1;fill-rule:evenodd;stroke:none"
                   d="m 1495.29,310.52 0,96.07 42.7,0 c 8,0 14.2,-0.891 18.7,-2.668 4.4,-1.781 8,-5.344 10.7,-9.781 2.6,-3.563 4.4,-8.903 4.4,-14.231 0,-6.23 -2.7,-12.461 -7.1,-16.91 -4.5,-4.441 -10.7,-8 -19.6,-8.891 2.7,-1.781 5.4,-3.558 7.1,-4.449 3.6,-3.558 7.2,-8 10.7,-13.34 l 16.9,-25.8 -16,0 -12.5,20.46 c -4.4,5.34 -7.1,9.79 -9.7,12.461 -1.8,3.547 -4.5,5.329 -6.3,7.11 -1.7,0.89 -3.5,1.777 -5.3,1.777 -1.8,0.891 -4.4,0.891 -7.1,0.891 l -15.1,0 0,-42.699 -12.5,0 z m 12.5,53.371 27.5,0 c 5.4,0 9.8,0.89 13.4,1.781 3.5,1.777 5.3,3.558 7.1,6.226 1.8,2.672 2.7,5.34 2.7,8.012 0,4.442 -1.8,8.891 -4.5,11.559 -3.5,2.672 -8.9,4.453 -16,4.453 l -30.2,0 0,-32.031" /><path
                   id="path4971"
                   style="fill:#231f20;fill-opacity:1;fill-rule:evenodd;stroke:none"
                   d="m 1128.79,428.828 452.742,0 0,16.9023 -452.742,0 0,-16.9023 z" /><path
                   id="path4973"
                   style="fill:#231f20;fill-opacity:1;fill-rule:evenodd;stroke:none"
                   d="m 1211.59,135.289 c 6.2,-4.449 11.5,-7.117 16,-8.891 l -3.6,-8.898 c -7.1,2.672 -13.3,6.23 -20.4,11.559 -7.2,-3.547 -15.2,-6.219 -23.2,-6.219 -8.9,0 -16.9,2.672 -24,7.109 -7.1,3.563 -12.4,9.789 -16,16.903 -3.5,8.007 -5.3,16.019 -5.3,25.796 0,9.782 1.8,17.793 5.3,25.801 3.6,8 8.9,13.34 16,17.789 7.1,3.551 15.1,6.223 24,6.223 8.9,0 16.9,-2.672 24.1,-6.223 7.1,-4.449 12.4,-10.679 16,-17.789 3.5,-8.008 5.3,-16.019 5.3,-25.801 0,-8.007 -0.9,-15.117 -3.6,-21.347 -1.7,-6.223 -5.3,-11.563 -10.6,-16.012 z m -27.6,16.012 c 7.1,-1.781 13.3,-5.34 17.8,-8.891 7.1,6.219 11.5,16.899 11.5,30.238 0,8.012 -1.7,14.231 -4.4,20.461 -2.7,5.34 -6.2,9.782 -11.6,13.34 -4.4,3.563 -10.6,4.449 -16.9,4.449 -9.7,0 -16.9,-2.668 -23.1,-9.789 -6.2,-6.218 -9.8,-16.007 -9.8,-28.461 0,-12.449 3.6,-22.238 9.8,-28.457 5.3,-7.121 13.4,-9.793 23.1,-9.793 4.5,0 8.9,0.891 12.5,2.672 -3.6,1.782 -8,3.559 -12.5,5.34 l 3.6,8.891" /><path
                   id="path4975"
                   style="fill:#231f20;fill-opacity:1;fill-rule:evenodd;stroke:none"
                   d="m 1241.79,90.8086 0,84.5114 11.6,0 0,-34.691 44.4,0 0,34.691 10.7,0 0,-84.5114 -10.7,0 0,40.0314 -44.4,0 0,-40.0314 -11.6,0" /><path
                   id="path4977"
                   style="fill:#231f20;fill-opacity:1;fill-rule:evenodd;stroke:none"
                   d="m 1325.39,179.77 0.9,16.011 3.6,14.231 11.5,0 -2.6,-14.231 -6.3,-16.011 -7.1,0" /><path
                   id="path4979"
                   style="fill:none;stroke:#231f20;stroke-width:9.59990025;stroke-linecap:round;stroke-linejoin:round;stroke-miterlimit:10;stroke-dasharray:none;stroke-opacity:1"
                   d="m 1071.89,844.23 -51.6,0 51.6,0 z m -51.6,0 51.6,0 -51.6,0 z m 51.6,-730.289 -51.6,0 51.6,0 z m -51.6,0 51.6,0 -51.6,0 z m -667.079,730.289 51.59,0 -51.59,0 z m 51.59,0 -51.59,0 51.59,0 z m -51.59,-730.289 51.59,0 -51.59,0 z m 51.59,0 -51.59,0 51.59,0 z" /><path
                   id="path4981"
                   style="fill:none;stroke:#231f20;stroke-width:9.59990025;stroke-linecap:round;stroke-linejoin:round;stroke-miterlimit:10;stroke-dasharray:none;stroke-opacity:1"
                   d="m 1020.29,1529.18 51.6,0 m 0,0 0,-137 m 0,0 -51.6,0 m 0,0 0,-47.2 m 0,0 51.6,0 m 0,0 0,-136.1 m 0,0 -51.6,0 m 0,0 0,-46.2 m 0,0 51.6,0 m 0,0 0,-137 m 0,0 -51.6,0 m 0,0 0,-44.5 m 0,0 51.6,0 m 0,0 0,-136.95 m -51.6,0 0,-44.48 m 0,-0.891 51.6,0 m 0,0 0,-136.98 m 0,0 -51.6,0 m 0,0 0,-47.141 m 0,0 51.6,0 m 0,0 0,-136.988 m 0,0 -51.6,0 m 0,0 0,-46.25 m 0,0 51.6,0 m 0,0 0,-136.102 m 0,0 -51.6,0 m 0,0 0,-45.359 m 0,0 51.6,0 m 0,0 0,-136.098 m -51.6,0 0,-44.4722 M 404.801,1529.18 l -51.59,0 m 0,0 0,-137 m 0,0 51.59,0 m 0,0 0,-47.2 m 0,0 -51.59,0 m 0,0 0,-136.1 m 0,0 51.59,0 m 0,0 0,-46.2 m 0,0 -51.59,0 m 0,0 0,-137 m 0,0 51.59,0 m 0,0 0,-44.5 m 0,0 -51.59,0 m 0,0 0,-136.95 m 51.59,0 0,-44.48 m 0,-0.891 -51.59,0 m 0,0 0,-136.98 m 0,0 51.59,0 m 0,0 0,-47.141 m 0,0 -51.59,0 m 0,0 0,-136.988 m 0,0 51.59,0 m 0,0 0,-46.25 m 0,0 -51.59,0 m 0,0 0,-136.102 m 0,0 51.59,0 m 0,0 0,-45.359 m 0,0 -51.59,0 0,-136.098 m 51.59,0 0,-44.4722" /></g></g></g></g></g></g><g
       id="g5009" /></g></svg>